<svg xmlns="http://www.w3.org/2000/svg" viewBox="0 0 144 144"><defs><style>.a{fill:#47aaf7}.a,.b,.c{stroke:#343a40;stroke-width:4px}.a,.b{stroke-miterlimit:10}.b{fill:#fff}.c{fill:#dee2e6;stroke-linecap:round;stroke-linejoin:round}</style></defs><path class="a" d="M14 40h116v12H14z"/><path class="b" d="M136 34a6 6 0 016 6v42h-12V40a6 6 0 016-6zM8 34a6 6 0 016 6v42H2V40a6 6 0 016-6z"/><path class="c" d="M70 2h3.94a4 4 0 014 4v13.5H66V6a4 4 0 014-4zm-3.94 35H78v45H66.06z"/><path class="c" d="M89 42.17l-16 2a8 8 0 01-2 0l-16-2a8 8 0 01-7-7.94V20a8 8 0 017-7.94l16-2a8 8 0 012 0l16 2A8 8 0 0196 20v14.23a8 8 0 01-7 7.94z"/><path d="M88.74 14L85 13.58v10.65a6 6 0 01-5.26 6l-16 2a6.11 6.11 0 01-.74 0 6 6 0 01-.75 0L50 30.66v3.58a6 6 0 005.26 6l16 2a6 6 0 00.75 0 6.11 6.11 0 00.74 0l16-2a6 6 0 005.26-6V20a6 6 0 00-5.27-6z" fill="#868e96"/><path stroke-linecap="round" fill="#fff" stroke-miterlimit="10" stroke="#343a40" stroke-width="4" d="M88 34.23L76 36"/><path d="M109.683 64.314h0a8 8 0 016.937 8.937l-1.75 13.89h0l-15.874-2h0l1.75-13.89a8 8 0 018.937-6.937z" fill="#ff6b6b" stroke-linejoin="round" stroke-linecap="round" stroke="#343a40" stroke-width="4"/><path fill="none" stroke-linecap="round" stroke-miterlimit="10" stroke="#343a40" stroke-width="4" d="M109.69 64.32l4-31.75"/><path d="M42.75 46.74a18.12 18.12 0 00-11.48-12.63 1.82 1.82 0 00-2.41 2.15L31.07 45a3.63 3.63 0 01-2.63 4.41l-7 1.78A3.63 3.63 0 0117 48.6l-2.21-8.78a1.82 1.82 0 00-3.14-.74 18.1 18.1 0 008.74 29.57 6.25 6.25 0 014.54 4.82L32.35 113a9.41 9.41 0 0010.77 7.65 9.23 9.23 0 007.06-12.18L36.67 70.53A6.31 6.31 0 0138 64a18.13 18.13 0 004.75-17.26z" fill="#fcc41a" stroke-linejoin="round" stroke-linecap="round" stroke="#343a40" stroke-width="4"/><path class="b" d="M2 82h140v52a8 8 0 01-8 8H10a8 8 0 01-8-8V82z"/><path d="M117 84v6.95A39.05 39.05 0 0177.95 130H4v4a6 6 0 006 6h124a6 6 0 006-6V84z" fill="#dee2e6"/><path class="a" d="M2 82h140v12H2z"/></svg>