<svg xmlns="http://www.w3.org/2000/svg" viewBox="0 0 1100 720"><defs><style>.cls-11,.cls-24,.cls-3,.cls-30{fill:none}.cls-3{stroke:#dee2e6}.cls-10,.cls-11,.cls-12,.cls-14,.cls-15,.cls-16,.cls-21,.cls-23,.cls-24,.cls-25,.cls-28,.cls-29,.cls-3,.cls-30,.cls-31,.cls-33,.cls-34,.cls-37,.cls-39,.cls-4,.cls-41,.cls-5,.cls-6,.cls-7,.cls-8,.cls-9{stroke-linecap:round;stroke-width:4px}.cls-10,.cls-11,.cls-12,.cls-14,.cls-15,.cls-16,.cls-21,.cls-23,.cls-25,.cls-3,.cls-31,.cls-33,.cls-34,.cls-37,.cls-39,.cls-4,.cls-41,.cls-5,.cls-6,.cls-7,.cls-8,.cls-9{stroke-linejoin:round}.cls-4{fill:#ff6b6b}.cls-10,.cls-11,.cls-12,.cls-14,.cls-15,.cls-16,.cls-21,.cls-23,.cls-24,.cls-25,.cls-28,.cls-29,.cls-31,.cls-33,.cls-34,.cls-37,.cls-39,.cls-4,.cls-41,.cls-5,.cls-6,.cls-7,.cls-8,.cls-9{stroke:#1a1d20}.cls-5{fill:#329af0}.cls-6{fill:#92da0d}.cls-29,.cls-7{fill:#fff}.cls-8{fill:#ffd79f}.cls-9{fill:#4dabf4}.cls-10,.cls-13,.cls-17,.cls-35{fill:#34261a}.cls-12,.cls-22{fill:#8c5017}.cls-13,.cls-19,.cls-22{opacity:.3}.cls-14,.cls-28{fill:#fcc41a}.cls-15,.cls-32{fill:#fab007}.cls-16,.cls-18{fill:#1a1d20}.cls-17{opacity:.2}.cls-21{fill:#eb9414}.cls-23{fill:#a87bef}.cls-24,.cls-28,.cls-29,.cls-30{stroke-miterlimit:10}.cls-25{fill:#81c91f}.cls-26,.cls-39{fill:#fa5252}.cls-31{fill:#dee2e6}.cls-30{stroke:#fff}.cls-33{fill:#f1f3f5}.cls-34{fill:#fdb95e}.cls-37{fill:#9461e7}.cls-41{fill:#495057}</style></defs><path fill="#f8f9fa" d="M-4348-49h7717v804h-7717z" id="background"/><g id="artwork"><path fill="none" d="M0 0h1100v720H0z"/><path class="cls-3" d="M740 508h280v132H740zm22 132h280M366 508h286a8 8 0 018 8v124H366V508zm-346 0h292v132H8V520a12 12 0 0112-12zM2 640h10m342 0h318"/><rect class="cls-3" x="484" y="48" width="560" height="340" rx="16" ry="16"/><rect class="cls-3" x="606" y="-50" width="316" height="536" rx="4" ry="4" transform="rotate(90 764 218)"/><path class="cls-3" d="M1000 60v108"/><circle class="cls-3" cx="1000" cy="174" r="6"/><rect class="cls-4" x="54" y="568" width="112" height="12" rx="6" ry="6"/><path class="cls-5" d="M60 552h100v3a13 13 0 01-13 13H73a13 13 0 01-13-13v-3z"/><path class="cls-6" d="M60 532h100v20H60z"/><path class="cls-7" d="M92 532h36v20H92z"/><path class="cls-8" d="M126 668h20v12h-20z"/><path class="cls-8" transform="rotate(180 84 674)" d="M74 668h20v12H74z"/><path class="cls-7" d="M130.414 676h11.172A10.414 10.414 0 01152 686.414V688h-32v-1.586A10.414 10.414 0 01130.414 676z"/><rect class="cls-7" x="116" y="688" width="40" height="8" rx="4" ry="4"/><path class="cls-7" d="M68 676h32v1.586A10.414 10.414 0 0189.586 688H78.414A10.414 10.414 0 0168 677.586V676z" transform="rotate(-180 84 682)"/><rect class="cls-7" x="64" y="688" width="40" height="8" rx="4" ry="4" transform="rotate(180 84 692)"/><path class="cls-9" d="M84 550a16 16 0 00-16 16v100h32V566a16 16 0 00-16-16zm36 16v100h32V566a16 16 0 00-16-16 16 16 0 00-16 16z"/><rect class="cls-5" x="64" y="652" width="40" height="16" rx="4" ry="4"/><rect class="cls-5" x="116" y="652" width="40" height="16" rx="4" ry="4"/><path class="cls-10" d="M630 348H470l5.478 42.45c-.725 11.59 7.409 26.29-3.722 32.922a32.707 32.707 0 0029.084-11.65h2.68c3.897 10.972 15.139 16.116 20.219 16.278-.419-3.812 2.54-9.566 6.76-16.278h37.293c3.736 6.782 6.268 12.552 5.65 16.27a38.227 38.227 0 0012.642-10.768c3.584 2.93 6.115 5.662 6.853 8.167a37.653 37.653 0 006.005-12.348c6.945 9.613 19.33 12.38 23.373 14.354-4.923-9.66-7.136-18.041-7.529-25.748C621 406 626 405 629.513 400.47c-10.408-6.738-7.844-18.682-8.144-28.425C624.147 365.661 630 360 630 348z"/><path class="cls-11" d="M564.993 402.6c7.89 5.352 15.903 10.332 21.354 14.838m28.449-15.38c-.68-11.487 2.72-21.45 7.376-31.833m-22.912 4.71c-8.171 19.587-5.58 31.49.337 38.978"/><path class="cls-12" d="M591.345 440.514l-22.562-3.47a8 8 0 01-6.783-7.907V412h-24v17.137a8 8 0 01-6.783 7.907l-22.562 3.47A22 22 0 00490 462.26V532h120v-69.741a22 22 0 00-18.655-21.745z"/><path class="cls-7" d="M614 474v-5.978a28 28 0 00-23.742-27.675l-10.925-1.68-18.02 18.02a16 16 0 01-22.627 0l-18.02-18.02-10.924 1.68A28 28 0 00486 468.022V474h24v58h80v-58z"/><path class="cls-11" d="M510 532v-60m80 60v-60"/><path class="cls-13" d="M540 414v15.137a9.97 9.97 0 01-2.478 6.609 35.706 35.706 0 0024.959.003 9.97 9.97 0 01-2.481-6.612V414z"/><path class="cls-12" d="M591.345 440.514l-22.562-3.47a8 8 0 01-6.783-7.907V412h-24v17.137a8 8 0 01-6.783 7.907l-22.562 3.47A22 22 0 00490 462.26V532h120v-69.741a22 22 0 00-18.655-21.745z"/><path class="cls-13" d="M550.025 437.999h.05a42.202 42.202 0 0012.443-2.211 9.966 9.966 0 01-2.518-6.651V414h-20v15.137a9.965 9.965 0 01-2.515 6.648 42.572 42.572 0 0012.54 2.214z"/><path class="cls-7" d="M527 532h46v-83l-6.03 6.03a24 24 0 01-33.94 0L527 449z"/><path class="cls-7" d="M527 532h46v-83l-6.03 6.03a24 24 0 01-33.94 0L527 449z"/><path class="cls-14" d="M537 532s4.59-21.346-1-36c-8.584-22.5-9-58.308-9-58.308l-17.258 2.655A28 28 0 00486 468.022V510h24v22zm53.258-91.653L573 437.692c-8.5 12.808-4.017 30.348-6 45.308-2.165 16.336-5.177 30.93-2.5 49H590v-22h24v-41.978a28 28 0 00-23.742-27.675z"/><path class="cls-15" d="M488 506h22v8h-22a4 4 0 01-4-4 4 4 0 014-4z"/><path class="cls-15" d="M594 506h22v8h-22a4 4 0 01-4-4 4 4 0 014-4z" transform="rotate(-180 603 510)"/><path class="cls-11" d="M510 532v-60m80 60v-60"/><path class="cls-12" d="M628 342v-42a28 28 0 00-28-28H500a28 28 0 00-28 28v42a8 8 0 00-8 8v4a16 16 0 0012.943 15.7 71.28 71.28 0 0025.366 32.799l25.855 18.228a36.42 36.42 0 0043.672 0l25.855-18.228a71.28 71.28 0 0025.366-32.799A16 16 0 00636 354v-4a8 8 0 00-8-8z"/><path class="cls-11" d="M622.942 370A74.567 74.567 0 00628 342.961V342m-156 0v.961A74.567 74.567 0 00477.058 370m71.452 2l-5.337 6.938A5.655 5.655 0 00547.82 388H550"/><circle class="cls-16" cx="578" cy="366" r="4"/><path class="cls-11" d="M594 354.036A19.948 19.948 0 00578 346"/><circle class="cls-16" cx="522" cy="366" r="4"/><path class="cls-11" d="M506 354.036A19.948 19.948 0 01522 346"/><path class="cls-7" d="M562 396a12 12 0 01-24 0z"/><path class="cls-17" d="M600 274H500a26.03 26.03 0 00-26 26v42.962c0 23.25 11.014 44.896 29.46 57.902l5.223 3.682S475 327 519.913 293.715l.004.002c2.718 20.297 15.366 35.834 36.582 38.63-4.333-3.509-9.663-12.93-9.171-19.832 3.618 7.485 23.129 23.164 51.589 12.485 10.279-3.857 18.637-1.212 24.797 3.63a27.735 27.735 0 012.286 2.04V300a26.029 26.029 0 00-26-26z"/><path class="cls-10" d="M596.701 226.258c.78-5.65.52-11.216-1.724-15.677-3.993-7.943-11.471-10.713-18.856-8.604.879-6.977-5.04-11.185-10.579-13.844-1.137-.546-2.228-1.122-3.301-1.687-4.315-2.273-17.121-2.446-21.998-2.446a30.25 30.25 0 00-3.48.198c-4.396.51-8.047 3.427-10.643 5.955a37.11 37.11 0 00-7.225 9.179 30.863 30.863 0 00-14.002 6.966c-5.25 4.752-9.212 11.834-9.97 17.72a28.067 28.067 0 00-.044 6.79C471.484 246.879 457 276.099 457 307c0 116 45.07 97 39.036 157 64.058-26.419-52.048-126 16.963-178.285l.004.001c2.722 20.298 15.39 35.835 36.638 38.631-4.34-3.508-9.678-12.93-9.185-19.832C544.08 312 563.62 327.679 592.124 317c10.298-3.858 18.671-1.21 24.84 3.635a30.45 30.45 0 019.834 14.164l2.466 7.201c31.081-62.067 4.745-100.106-32.563-115.742z"/><path class="cls-11" d="M580.052 201.294a18.058 18.058 0 00-8.046 1.794c-5.497 2.578-16.091 2.507-25.481 1.527-5.707-.596-11.384-2.916-16.282-4.483a23.857 23.857 0 00-11.906-.67m-29.927 36.306A72.534 72.534 0 01536.07 218h19.02a107.235 107.235 0 0149.224 11.84"/><path class="cls-18" d="M631.648 257.115c-12.697-20.512-38.717-34.417-67.819-36.76 14.74 11.11 25.418 25.614 29.526 41.21 4.721 17.929 1.06 36.97-10.587 56.054a56.794 56.794 0 008.652-2.491 29.499 29.499 0 0110.349-1.977 26.154 26.154 0 0116.428 5.908 32.358 32.358 0 0110.496 15.093l.887 2.59c14.423-31.024 15.157-58.48 2.068-79.627z"/><path class="cls-11" d="M513.23 286.01c-.64-9.75 2.2-25.158 11.976-32.95m15.301 51.455a17.033 17.033 0 0111.166-14.946 21.7 21.7 0 011.68-.59m51.158 7.767q-.847-.423-1.639-.764M629.264 342c-1.972-22.155-10.013-34.13-17.67-40.577"/><path d="M490.371 403.394c-9.115-19.014-20.46-42.677-12.693-107.022 2.673-22.147 13.153-43.135 28.753-57.583a74.211 74.211 0 0136.3-18.789h-6.661c-21.29 0-40.972 9.374-55.42 26.396-13.756 16.209-21.646 38.297-21.646 60.604 0 64.81 14.098 86.95 25.426 104.737 7.323 11.5 13.81 21.686 14.142 40.463 4.125-23.075-1.615-35.067-8.2-48.806z" fill="#8c5017"/><path class="cls-10" d="M1076 362H918c-1.108 29.346-10.108 20.393-3.033 53.3 6.43 29.897-.003 38-10.967 45.44 12.308 14.435 33.26 9.392 53.968 2.35l118.032.193z"/><path class="cls-21" d="M1031.345 440.514l-22.562-3.47a8 8 0 01-6.783-7.907V412h-24v17.137a8 8 0 01-6.783 7.907l-22.562 3.47A22 22 0 00930 462.26V532h120v-69.741a22 22 0 00-18.655-21.745z"/><path class="cls-22" d="M980 413v15.137a9.97 9.97 0 01-2.478 6.609 35.706 35.706 0 0024.959.003 9.97 9.97 0 01-2.481-6.612V413z"/><path class="cls-12" d="M950 532v-60"/><path class="cls-23" d="M989.999 532H1030v-60h24v-4a28 28 0 00-23.742-27.653l-4.258-.655-13.271 10.805a36 36 0 01-45.457 0L954 439.692l-4.258.655A28 28 0 00926.001 468v4h24v60h39.998z"/><path class="cls-21" d="M950 528v-60m80 60v-60"/><path class="cls-8" d="M1056 342h12a8 8 0 018 8v4a16 16 0 01-16 16h-4v-28z"/><path class="cls-8" d="M904 342h4a16 16 0 0116 16v4a8 8 0 01-8 8h-12v-28z" transform="rotate(-180 914 356)"/><path class="cls-21" d="M1040 272a28 28 0 0128 28v42.962c0 23.899-11.33 46.156-30.309 59.537l-25.855 18.229a36.419 36.419 0 01-43.672 0l-25.855-18.229C923.33 389.119 912 366.861 912 342.961V300a28 28 0 0128-28z"/><circle class="cls-16" cx="1018" cy="366" r="4"/><path class="cls-11" d="M1034 354.036a19.948 19.948 0 00-16-8.036"/><circle class="cls-16" cx="962" cy="366" r="4"/><path class="cls-11" d="M946 354.036A19.948 19.948 0 01962 346m28 22c-.849 4.45-4.375 9.183-7.093 12.806a4.496 4.496 0 003.597 7.194H990"/><path class="cls-7" d="M976 396a14.8 14.8 0 0028 0z"/><path class="cls-17" d="M1066 300a26.03 26.03 0 00-26-26H940a26.03 26.03 0 00-26 26v42.961a71.336 71.336 0 0019.98 49.812C936.868 395.738 932 389 937 387c-2.533-8.867-18-80.855 47.369-80.855.792 8.673 5.891 17.425 16.631 23.87 17.067 10.242 48.864 20.662 49.945 57.107a71.705 71.705 0 0015.055-44.16z"/><path class="cls-10" d="M1078.3 453.329c5.472-.695 8.827-4.439 10.873-10.04 0 0-15.173-11.085-8.6-37.89 1.16-5.052 2.243-3.864 2.88-8.264 6.091-42.183-13.453-44.115-3.453-85.121 12.931-53.026-37-86.014-67-86.014a59.949 59.949 0 00-14.99 1.75 40.129 40.129 0 01-20.02 0A59.949 59.949 0 00963 226c-30 0-80.016 33.009-67 86.014 8.75 35.63-4 38.006-1.372 62.857 2.12 20.045 12.372 39.16-4.628 56.162 43 18.003 52-28.004 42-63.01-12.335-43.178 7.257-66.054 42.369-67.878.792 8.674 5.891 17.426 16.631 23.871 17.363 10.42 49.996 21.004 49.996 59.01 0 11.941-3.053 15.923-5.553 25.668-10.317 10.923-17.57 22.563-17.885 36.462-.271 11.982 5.442 30.63 27.097 30.056a15.864 15.864 0 01.98-12.527c9.5 10.604 24.269 18.367 44.365 9.357-7.626-5.4-9.185-11.792-11.7-18.713z"/><path class="cls-18" d="M927.415 315.877c-9.51 11.893-11.908 29.718-6.937 51.547 5 21.948 2.05 44.175-7.34 55.312a21.648 21.648 0 01-18.442 7.938 40.235 40.235 0 0012.868 2.396 21.68 21.68 0 0018.183-8.932c8.765-11.619 10.505-33.95 4.33-55.566-6.142-21.502-4.715-39.41 4.129-51.79 5.86-8.202 14.826-13.836 26.293-16.66-14.832 1.228-25.573 6.361-33.084 15.755z"/><path class="cls-22" d="M963 228c-14.988 0-38.143 8.957-53.563 28.622-8.678 11.067-17.717 29.578-11.495 54.915 5.25 21.374 2.911 31.132.65 40.568-1.556 6.493-3.025 12.626-1.975 22.556.491 4.652 1.449 9.343 2.375 13.88 2.866 14.045 5.825 28.543-5.53 41.705.24.087.474.163.711.247.136-.375.16-.6.057-.65 13.073-12.187 11.665-27.335 10.302-42.01-.44-4.74-.896-9.642-.88-14.452.034-10.266 2.22-16.37 4.533-22.833 3.364-9.393 6.842-19.106 3.86-41.537-2.69-20.232 2.935-38.141 16.267-51.79C942.918 242.269 972.884 231.933 989 231c-10 0-15.157-3-26-3z"/><path class="cls-18" d="M1055.54 261.7c10.559 15.314 13.017 33.458 7.11 52.469-6.714 21.607-4.475 32.795-2.104 44.64 2.097 10.47 4.264 21.294.198 40.788-.87 4.175-2.2 2.77-3.722 7.911-7.041 22.558-10.82 42.455-1.421 61.178a31.486 31.486 0 0017.345 5.314 37.904 37.904 0 0013.147-2.52c-5.16-4.65-6.983-9.837-8.897-15.285-.253-.721-.509-1.45-.776-2.184l-.854-2.351 2.482-.315c3.975-.505 6.777-2.886 8.74-7.462-3.667-3.404-13.935-15.402-8.165-38.93 1.198-5.223 2.24-3.89 2.849-8.104 2.844-19.693.008-30.352-2.736-40.661-3.104-11.665-6.036-22.683-.68-44.648 6.19-25.384-2.877-43.912-11.574-54.984C1051.072 236.936 1027.957 228 1013 228c-.493 0-.951.02-1.428.03 14.793 3.469 32.637 17.236 43.968 33.67z"/><path class="cls-11" d="M997 228a27.442 27.442 0 00-17 13m55.866 166.215c-3.36 12.89-6.11 25.2.002 40.868 1.588 4.073 5.504 10.071 9.767 14.805m-57.636-189.622q.985-.642 2.028-1.217m-15.66 28.084a28.52 28.52 0 017.46-21.593m96.474 174.755c-4.729.6-10.663-1.243-15.49-6.602M1040 395c13.125-75-34.395-78.808-25.554-105.358"/><path class="cls-24" d="M886 696h200"/><path class="cls-21" d="M151.345 440.514l-22.562-3.47a8 8 0 01-6.783-7.907V412H98v17.137a8 8 0 01-6.783 7.907l-22.562 3.47A22 22 0 0050 462.26V532h120v-69.741a22 22 0 00-18.655-21.745z"/><path class="cls-6" d="M150.258 440.347l-20.277-3.12C129.776 443.75 120.918 449 110 449s-19.776-5.251-19.98-11.772l-20.278 3.12A28 28 0 0046 468.022V532h128v-63.978a28 28 0 00-23.742-27.675z"/><path class="cls-11" d="M70 532v-60m80 60v-60"/><path class="cls-7" d="M129.98 437.228C129.777 443.748 120.919 449 110 449s-19.776-5.251-19.98-11.772l-6.02.926L88 448a48.696 48.696 0 014 19.328V532h36v-64.672A48.696 48.696 0 01132 448l4-9.846z"/><path class="cls-25" d="M122 416v13.137a8 8 0 006.783 7.907 8.63 8.63 0 012.298.69 5.245 5.245 0 012.497 7.11L132 448h10a12 12 0 0012-12v-4a16 16 0 00-16-16z"/><path class="cls-11" d="M122 424h16a8.01 8.01 0 018 8v4a4.005 4.005 0 01-4 4h-.108"/><path class="cls-25" d="M98 416v13.137a8 8 0 01-6.783 7.907 8.63 8.63 0 00-2.298.69 5.245 5.245 0 00-2.497 7.11L88 448H78a12 12 0 01-12-12v-4a16 16 0 0116-16z"/><path class="cls-11" d="M98 424H82a8.01 8.01 0 00-8 8v4a4.005 4.005 0 004 4h.108M138 448v24m-56-24v24"/><path class="cls-22" d="M100 414v15.137a9.97 9.97 0 01-2.478 6.609 41.555 41.555 0 0012.528 2.253 41.217 41.217 0 0012.431-2.25 9.97 9.97 0 01-2.481-6.612V414z"/><path class="cls-21" d="M176 342h12a8 8 0 018 8v4a16 16 0 01-16 16h-4v-28z"/><path class="cls-21" d="M24 342h4a16 16 0 0116 16v4a8 8 0 01-8 8H24v-28z" transform="rotate(-180 34 356)"/><path class="cls-21" d="M188 300v52.985a48 48 0 01-16.877 36.542l-36.204 30.835A32 32 0 01114.17 428h-8.34a32 32 0 01-20.749-7.638l-36.204-30.835A48 48 0 0132 352.985V300a28 28 0 0128-28h100a28 28 0 0128 28z"/><path class="cls-11" d="M108.51 372l-5.337 6.938A5.655 5.655 0 00107.82 388H110m-4 21.727a29.398 29.398 0 008 0M98 398c2.4 2.389 6.869 4 12 4s9.6-1.611 12-4"/><circle class="cls-16" cx="140" cy="366" r="4"/><path class="cls-11" d="M156 354.036A19.948 19.948 0 00140 346"/><circle class="cls-16" cx="80" cy="366" r="4"/><path class="cls-11" d="M64 354.036A19.948 19.948 0 0180 346"/><path class="cls-10" d="M192 290v52c-15 0-28-10-28-38-3 11-14 26-27 23 4-6 .939-20.858-5.779-23.89C125 328 82.797 333.53 75 324c12-5 13-10 11-18H61c0 15-3 25-13 29 0 0-2-7-8-8 0 0 1 14-12 15v-52z"/><circle class="cls-4" cx="110" cy="210" r="28"/><path class="cls-26" d="M110 184a26.015 26.015 0 00-4.871.464 25.978 25.978 0 01-12.258 45.072A25.992 25.992 0 10110 184z"/><path class="cls-4" d="M106 204h8a80 80 0 0180 80H26a80 80 0 0180-80z"/><path class="cls-26" d="M145.973 282h46.002A78.094 78.094 0 00114 206h-7.514a78.1 78.1 0 0139.487 76z"/><rect class="cls-4" x="20" y="270" width="180" height="48" rx="12" ry="12"/><path class="cls-26" d="M188 272h-6.202a10.003 10.003 0 01.202 2 34 34 0 01-34 34H22.202A10.017 10.017 0 0032 316h156a10 10 0 0010-10v-24a10 10 0 00-10-10z"/><rect class="cls-7" x="156" y="282" width="32" height="20" rx="4" ry="4"/><path d="M184 284h-3.497a34.025 34.025 0 01-10.603 16H184a2.003 2.003 0 002-2v-12a2.003 2.003 0 00-2-2z" fill="#dee2e6"/><path class="cls-28" d="M20 496h180v16a32 32 0 01-32 32H52a32 32 0 01-32-32v-16z"/><rect class="cls-29" x="14" y="484" width="192" height="12" rx="6" ry="6"/><path class="cls-30" d="M32 504h32"/><path class="cls-31" d="M193 696h-12V576a20 20 0 00-20-20H59a20 20 0 00-20 20v120H27V576a32 32 0 0132-32h102a32 32 0 0132 32z"/><path class="cls-31" d="M183 688h8a4 4 0 014 4v4h-16v-4a4 4 0 014-4zm-154 0h8a4 4 0 014 4v4H25v-4a4 4 0 014-4z"/><path class="cls-32" d="M174 498a36 36 0 01-36 36H54a32 32 0 01-32-32v10a30.047 30.047 0 0030 30h116a30 30 0 0030-30v-14z"/><rect class="cls-4" x="494" y="568" width="112" height="12" rx="6" ry="6"/><path class="cls-25" d="M504 552h92v3a13 13 0 01-13 13h-66a13 13 0 01-13-13v-3z"/><path class="cls-4" d="M500 532h100v20H500z"/><path class="cls-12" d="M564 664h20v16h-20z"/><path class="cls-12" transform="rotate(180 526 672)" d="M516 664h20v16h-20z"/><path class="cls-7" d="M568.414 676h11.172A10.414 10.414 0 01590 686.414V688h-32v-1.586A10.414 10.414 0 01568.414 676z"/><rect class="cls-7" x="554" y="688" width="40" height="8" rx="4" ry="4"/><path class="cls-7" d="M510 676h32v1.586A10.414 10.414 0 01531.586 688h-11.172A10.414 10.414 0 01510 677.586V676z" transform="rotate(-180 526 682)"/><rect class="cls-7" x="506" y="688" width="40" height="8" rx="4" ry="4" transform="rotate(180 526 692)"/><path class="cls-6" d="M526 550a12 12 0 00-12 12v98h24v-98a12 12 0 00-12-12zm36 12v98h24v-98a12 12 0 00-12-12 12 12 0 00-12 12z"/><rect class="cls-25" x="512" y="652" width="28" height="12" rx="4" ry="4"/><rect class="cls-25" x="560" y="652" width="28" height="12" rx="4" ry="4"/><path class="cls-28" d="M460 496h180v16a32 32 0 01-32 32H492a32 32 0 01-32-32v-16z"/><rect class="cls-29" x="454" y="484" width="192" height="12" rx="6" ry="6"/><path class="cls-31" d="M633 696h-12V576a20 20 0 00-20-20H499a20 20 0 00-20 20v120h-12V576a32 32 0 0132-32h102a32 32 0 0132 32z"/><path class="cls-31" d="M623 688h8a4 4 0 014 4v4h-16v-4a4 4 0 014-4zm-154 0h8a4 4 0 014 4v4h-16v-4a4 4 0 014-4z"/><path class="cls-32" d="M614 498a36 36 0 01-36 36h-84a32 32 0 01-32-32v10a30.047 30.047 0 0030 30h116a30 30 0 0030-30v-14z"/><path class="cls-30" d="M482 504h40m-48 0h-2"/><rect class="cls-4" x="934" y="568" width="112" height="12" rx="6" ry="6" transform="rotate(-180 990 574)"/><path class="cls-33" d="M953 552h74a13 13 0 0113 13v3H940v-3a13 13 0 0113-13z" transform="rotate(180 990 560)"/><path class="cls-9" transform="rotate(180 990 542)" d="M940 532h100v20H940z"/><path class="cls-21" transform="rotate(180 963 672)" d="M951 664h24v16h-24z"/><path class="cls-21" d="M1004 664h24v16h-24z"/><path class="cls-6" d="M944 676h38v1.586A10.414 10.414 0 01971.586 688h-17.172A10.414 10.414 0 01944 677.586V676z" transform="rotate(180 963 682)"/><rect class="cls-6" x="940" y="688" width="46" height="8" rx="4" ry="4" transform="rotate(180 963 692)"/><path class="cls-6" d="M1008.414 676h15.172A10.414 10.414 0 011034 686.414V688h-36v-1.586A10.414 10.414 0 011008.414 676z"/><rect class="cls-6" x="994" y="688" width="44" height="8" rx="4" ry="4"/><path class="cls-7" d="M1016 550a14 14 0 0114 14v90h-28v-90a14 14 0 0114-14z"/><rect class="cls-33" x="1000" y="648" width="32" height="16" rx="4" ry="4" transform="rotate(180 1016 656)"/><path class="cls-7" d="M977 564v90h-28v-90a14 14 0 0114-14 14 14 0 0114 14z"/><rect class="cls-33" x="946" y="648" width="34" height="16" rx="4" ry="4" transform="rotate(180 963 656)"/><path class="cls-28" d="M900 496h180v16a32 32 0 01-32 32H932a32 32 0 01-32-32v-16z"/><path class="cls-32" d="M1054 498a36 36 0 01-36 36h-84a32 32 0 01-32-32v10a30.047 30.047 0 0030 30h116a30 30 0 0030-30v-14z"/><rect class="cls-29" x="894" y="484" width="192" height="12" rx="6" ry="6"/><path class="cls-30" d="M908 504h24"/><path class="cls-31" d="M1073 696h-12V576a20 20 0 00-20-20H939a20 20 0 00-20 20v120h-12V576a32 32 0 0132-32h102a32 32 0 0132 32z"/><path class="cls-31" d="M1063 688h8a4 4 0 014 4v4h-16v-4a4 4 0 014-4zm-154 0h8a4 4 0 014 4v4h-16v-4a4 4 0 014-4z"/><path class="cls-24" d="M14 696h236m200 0h200m-208 0h-4m228 0h-8"/><path class="cls-3" d="M365 73l19 19"/><circle class="cls-3" cx="360" cy="68" r="60"/><circle class="cls-3" cx="360" cy="68" r="48"/><circle class="cls-3" cx="360" cy="32" r="2"/><circle class="cls-3" cx="360" cy="104" r="2"/><circle class="cls-3" cx="378" cy="36.823" r="2"/><circle class="cls-3" cx="342" cy="99.177" r="2"/><circle class="cls-3" cx="391.177" cy="50" r="2"/><circle class="cls-3" cx="328.823" cy="86" r="2"/><circle class="cls-3" cx="396" cy="68" r="2"/><circle class="cls-3" cx="324" cy="68" r="2"/><circle class="cls-3" cx="391.177" cy="86" r="2"/><circle class="cls-3" cx="328.823" cy="50" r="2"/><circle class="cls-3" cx="378" cy="99.177" r="2"/><circle class="cls-3" cx="342" cy="36.823" r="2"/><circle class="cls-3" cx="360" cy="68" r="6"/><path class="cls-3" d="M360 62V42"/><path class="cls-12" d="M392 397.744S378.653 385.98 384.174 354H275.826c5.52 31.979-7.826 43.744-7.826 43.744a33.381 33.381 0 0016.13 4.1c.288 4.17-3.757 6.728-3.757 6.728 17.01 13.427 39.246-.55 49.627-14.89 10.382 14.34 32.617 28.317 49.627 14.89 0 0-4.045-2.557-3.757-6.728a33.381 33.381 0 0016.13-4.1z"/><path class="cls-34" d="M371.345 428.514l-22.562-3.47a8 8 0 01-6.783-7.907V400h-24v17.137a8 8 0 01-6.783 7.907l-22.562 3.47A22 22 0 00270 450.26V496h120v-45.741a22 22 0 00-18.655-21.745z"/><path class="cls-9" d="M370.257 428.347l-11.88-1.904-4.582 5.096a32 32 0 01-47.59 0l-4.582-5.096-11.88 1.904A28 28 0 00266 456.022V476l24 8v12h80v-12l24-8v-19.978a28 28 0 00-23.743-27.675z"/><path class="cls-21" d="M290 496v-33m80 33v-36"/><path class="cls-22" d="M320 402v15.137a9.97 9.97 0 01-2.478 6.609 35.706 35.706 0 0024.959.003 9.97 9.97 0 01-2.481-6.612V402z"/><path class="cls-34" d="M396 330h12a8 8 0 018 8v4a16 16 0 01-16 16h-4v-28z"/><path class="cls-34" d="M244 330h4a16 16 0 0116 16v4a8 8 0 01-8 8h-12v-28z" transform="rotate(-180 254 344)"/><path class="cls-34" d="M380 260a28 28 0 0128 28v42.962c0 23.899-11.33 46.156-30.309 59.537l-25.855 18.229a36.419 36.419 0 01-43.672 0l-25.855-18.229C263.33 377.119 252 354.861 252 330.961V288a28 28 0 0128-28z"/><path class="cls-11" d="M324 350h12"/><circle class="cls-11" cx="362" cy="350" r="24"/><path class="cls-11" d="M386 350l22-20m-134 20l-22-20"/><circle class="cls-11" cx="298" cy="350" r="24"/><path class="cls-17" d="M380 263H280a26 26 0 00-26 26v46.962c0 3.098 10.972 4.038 22 4.038 24 0 50.982-19.423 61.507-33.382a18.209 18.209 0 01-1.498 14.557S363.923 306.83 369 278c2 36 20 52 36.463 54.802.353-2.91.537 2.138.537-.84V289a26 26 0 00-26-26z"/><path class="cls-12" d="M381 228a43.654 43.654 0 00-7.01-6.687c.052-14.706-7.488-25.876-11.143-30.16-5.33-6.246-14.792-6.984-22.478-9.702-7.45-2.634-16.353-1.183-24.658.434-8.501 1.655-13.949 3.095-18.017 8.153-4.341 5.396-11.114 11.732-11.622 19.746a39.784 39.784 0 00.024 5.107C261.62 225.333 240 246.78 240 283c0 17.94 6.703 35.875 10.09 43.791A23.848 23.848 0 01242 333c19.117 11.601 72.172-6.761 94.507-36.382a18.209 18.209 0 01-1.498 14.557S362.923 296.83 368 268c5 26 20 59 40 64 6-2 12-31 12-48 0-9.335-3-65-39-56z"/><path class="cls-11" d="M373.906 221.24C362.814 212.67 344.67 205.41 324 207a98.798 98.798 0 00-38.63 8.203"/><g class="cls-19"><path class="cls-35" d="M333.328 185.308c5.534 3.496 11.255 7.11 13.802 12.45a45.824 45.824 0 013.263 9.847 72.846 72.846 0 0121.393 9.66 46.502 46.502 0 00-10.461-24.814c-3.84-4.5-10.301-6.515-16.55-8.463-1.686-.526-3.43-1.07-5.074-1.651a26.153 26.153 0 00-8.805-1.337c-1.331 0-2.692.075-4.06.195a21.169 21.169 0 012.016 1.207c1.438.986 2.983 1.962 4.476 2.906z"/></g><path d="M280.91 314.58c-11.454-27.889-3.808-49.956 4.623-63.556 9.55-15.407 25.67-28.882 43.116-36.048l.14-.063a72.807 72.807 0 015.08-2.318 72.94 72.94 0 018.105-2.78 73.243 73.243 0 00-12.241-1.035 73.18 73.18 0 00-5.58.214L324 209c-18.861 0-38.89 6.342-53.578 16.965C257.456 235.343 242 252.85 242 283c0 17.865 6.943 36.025 9.929 43.005l.487 1.14-.804.943a26.976 26.976 0 01-5.286 4.742 34.113 34.113 0 0011.331 1.689c8.782 0 19.517-2.283 30.418-6.393a86.002 86.002 0 01-7.165-13.546z" fill="#eb9414"/><g class="cls-19"><path class="cls-35" d="M388.493 229.02a25.987 25.987 0 00-2.92.182C394.84 245.348 416 291 395.997 322.592a29.272 29.272 0 0011.799 7.283C411.857 326.961 418 302.131 418 284c0-.55-.338-54.98-29.507-54.98z"/></g><path class="cls-11" d="M381 228a27.216 27.216 0 00-10.787 6.939m-115.147 81.774a22.715 22.715 0 01-4.556 9.578m86.209-28.972a18.19 18.19 0 00-3.219-6.444"/><path class="cls-12" d="M368 268a69.56 69.56 0 001-12.667"/><path class="cls-11" d="M328.51 360l-5.337 6.938A5.655 5.655 0 00327.82 376H330"/><circle class="cls-16" cx="358" cy="354" r="4"/><path class="cls-11" d="M374 342.036A19.948 19.948 0 00358 334"/><circle class="cls-16" cx="302" cy="354" r="4"/><path class="cls-11" d="M286 342.036A19.948 19.948 0 01302 334"/><path class="cls-7" d="M342 384a12 12 0 01-24 0z"/><rect class="cls-4" x="274" y="552" width="112" height="12" rx="6" ry="6" transform="rotate(-180 330 558)"/><path class="cls-37" d="M297 536h66a13 13 0 0113 13v3h-92v-3a13 13 0 0113-13z" transform="rotate(180 330 544)"/><path class="cls-9" transform="rotate(180 330 526)" d="M280 516h100v20H280z"/><path class="cls-34" transform="rotate(180 306 650)" d="M296 644h20v12h-20z"/><path class="cls-34" d="M344 644h20v12h-20z"/><path class="cls-7" d="M290 652h32v1.586A10.414 10.414 0 01311.586 664h-11.172A10.414 10.414 0 01290 653.586V652z" transform="rotate(180 306 658)"/><rect class="cls-7" x="286" y="664" width="40" height="8" rx="4" ry="4" transform="rotate(180 306 668)"/><path class="cls-7" d="M348.414 652h11.172A10.414 10.414 0 01370 662.414V664h-32v-1.586A10.414 10.414 0 01348.414 652z"/><rect class="cls-7" x="334" y="664" width="40" height="8" rx="4" ry="4"/><path class="cls-23" d="M354 533a12 12 0 0112 12v92h-24v-92a12 12 0 0112-12z"/><rect class="cls-37" x="338" y="632" width="32" height="12" rx="4" ry="4" transform="rotate(180 354 638)"/><path class="cls-23" d="M318 545v92h-24v-92a12 12 0 0112-12 12 12 0 0112 12z"/><rect class="cls-37" x="290" y="632" width="32" height="12" rx="4" ry="4" transform="rotate(180 306 638)"/><path class="cls-28" d="M244 484h172v12a32 32 0 01-32 32H276a32 32 0 01-32-32v-12z"/><path class="cls-32" d="M390 486a32 32 0 01-32 32h-80a32 32 0 01-32-32v10a30.047 30.047 0 0030 30h108a30 30 0 0030-30v-10z"/><rect class="cls-29" x="238" y="472" width="184" height="12" rx="6" ry="6"/><path class="cls-30" d="M252 492h16"/><path class="cls-31" d="M409 672h-12V560a20 20 0 00-20-20h-94a20 20 0 00-20 20v112h-12V560a32 32 0 0132-32h94a32 32 0 0132 32z"/><path class="cls-31" d="M399 664h8a4 4 0 014 4v4h-16v-4a4 4 0 014-4zm-146 0h8a4 4 0 014 4v4h-16v-4a4 4 0 014-4z"/><path class="cls-24" d="M426 672H234m-8 0h-4"/><path class="cls-29" d="M922 468h48v16h-48a8 8 0 01-8-8 8 8 0 018-8z"/><path class="cls-24" d="M970 468h2m-46 8h16m8 0h2"/><path class="cls-29" d="M254 456h52v16h-52a8 8 0 01-8-8 8 8 0 018-8zm4-12h42v12h-42a6 6 0 01-6-6 6 6 0 016-6z"/><path stroke-miterlimit="10" fill="#92da0d" stroke="#1a1d20" stroke-linecap="round" stroke-width="4" d="M282 464h12v8h-12z"/><path class="cls-24" d="M282 464h-8m-8 0h-2m30 0h4m8-8h2m-8-12h2"/><path class="cls-39" d="M749.904 428.5h42l-6-13h-32l-4 13z"/><path class="cls-8" d="M811.25 428.514l-22.562-3.47a8 8 0 01-6.783-7.907V400h-24v17.137a8 8 0 01-6.784 7.907l-22.562 3.47a22 22 0 00-18.654 21.745V520h120v-69.741a22 22 0 00-18.655-21.745z"/><path class="cls-4" d="M833.904 484v-27.978a28 28 0 00-23.742-27.675l-10.924-1.68-13.334 6.833-16 14-16-14-13.333-6.833-10.924 1.68a28 28 0 00-23.743 27.675V484h24v36h80v-36zm-39-48.5l-13 12"/><path class="cls-4" d="M753.904 433.5l19 16.75V469m-30-35.5l16 14.75"/><path class="cls-11" d="M729.904 520v-60m80 60v-60"/><path d="M756.644 424.534l.457.157a42.555 42.555 0 0012.829 2.308h.049a42.187 42.187 0 0012.732-2.305l.457-.158a9.95 9.95 0 01-3.264-7.4V402h-20v15.137a9.95 9.95 0 01-3.26 7.397z" fill="#eb9414" opacity=".3"/><path class="cls-39" d="M784.904 415.5l12 9v20l-12-11v-18zm-30 0l-12 9v20l12-11v-18z"/><path class="cls-8" d="M836 330h12a8 8 0 018 8v4a16 16 0 01-16 16h-4v-28z"/><path class="cls-8" d="M684 330h4a16 16 0 0116 16v4a8 8 0 01-8 8h-12v-28z" transform="rotate(-180 694 344)"/><path class="cls-8" d="M848 288v52.985a48 48 0 01-16.877 36.542l-36.204 30.835A32 32 0 01774.17 416h-8.34a32 32 0 01-20.749-7.638l-36.204-30.835A48 48 0 01692 340.985V288a28 28 0 0128-28h100a28 28 0 0128 28z"/><path class="cls-14" d="M804 219h-.82a24.384 24.384 0 0111.181-6.969c-8.067-5.743-23.587-5.823-36.55 1.813A18.004 18.004 0 01778 204c-11.136 1.31-26.134 7.341-35.718 15H736a48 48 0 00-48 48v63a13.1 13.1 0 004-.71v19.694a47.93 47.93 0 0016.877 36.543l36.204 30.834A32.029 32.029 0 00765.83 424h8.342a32.029 32.029 0 0020.748-7.639l36.204-30.834A47.93 47.93 0 00848 348.984V329.29a13.1 13.1 0 004 .71v-63a48 48 0 00-48-48zm36 129a36 36 0 01-36 36h-.791A13.47 13.47 0 01792 378.002l-.002-.004A13.47 13.47 0 00780.79 372h-21.58a13.47 13.47 0 00-11.21 5.998l-.002.004A13.47 13.47 0 01736.79 384H736a36 36 0 01-36-36v-23.635c4.416-4.227 8-10.916 8-20.365v-16c10 0 22 11 20 20 6.118-1.53 9.89-10.075 8.198-17.142 7.11-.588 25.271 1.846 32.802 13.142 1.777-3.555 1.968-11.65-.73-19.637 8.94-.782 19.756 3.664 25.73 9.637 2.399-1.919 4.26-7.06 2.037-12 .862-.33 1.71-.597 2.552-.838 11.794-3.202 26.652 8.557 25.661 19.588a12.97 12.97 0 007.75-5.227V304c0 9.449 3.584 16.138 8 20.365z"/><path class="cls-32" d="M804 221h-2.264a46.067 46.067 0 0110.347 51.003l-3.215 7.577a27.11 27.11 0 0111.977 7.589 19.735 19.735 0 015.348 10.786 11.26 11.26 0 004.185-3.601l3.622-5.022V304c0 9.796 4.015 15.696 7.383 18.92l.617.59V348a38.045 38.045 0 01-34.703 37.848l-9.307 9.829a52.657 52.657 0 01-32.6 16.15 30.025 30.025 0 01-20.107-5.039l-39.133-26.67a46.18 46.18 0 004.024 3.887l36.204 30.834A30.026 30.026 0 00765.83 422h8.342a30.026 30.026 0 0019.451-7.161l36.204-30.834A45.935 45.935 0 00846 348.985V329.29a2 2 0 012.622-1.9 14.013 14.013 0 001.378.375V267a46 46 0 00-46-46z"/><path class="cls-11" d="M831.582 296.082a20.628 20.628 0 003.918-9.957"/><path class="cls-14" d="M733 232c.69-4.484 4.235-8.968 9.28-13m60.898-.003c-2.498 2.829-3.974 6.247-3.02 9.83m-27.723-11.24a42.173 42.173 0 015.876-4.044m-42.106 77.314A12.198 12.198 0 00733 285m35.277-.64a36.443 36.443 0 00-2.06-4.907M792.5 278a12.75 12.75 0 013.537 4"/><path class="cls-8" d="M778.153 372.128a3.418 3.418 0 00-2.97 1.375 6.483 6.483 0 01-5.27 2.497h.175a6.483 6.483 0 01-5.271-2.497 3.418 3.418 0 00-2.97-1.375 3.43 3.43 0 01-3.491-2.327 6 6 0 011.482-6.044c3.534-3.636 6.242-7.465 6.242-15.757"/><path class="cls-7" d="M756 385a14.8 14.8 0 0028 0z"/><path class="cls-11" d="M766 402.624a21.481 21.481 0 008 0"/><circle class="cls-16" cx="797" cy="354" r="4"/><path class="cls-11" d="M813 342.036A19.948 19.948 0 00797 334"/><circle class="cls-16" cx="741" cy="354" r="4"/><path class="cls-11" d="M725 342.036A19.948 19.948 0 01741 334"/><rect class="cls-4" x="714" y="552" width="112" height="12" rx="6" ry="6"/><path class="cls-5" d="M720 536h100v3a13 13 0 01-13 13h-74a13 13 0 01-13-13v-3z"/><path class="cls-6" d="M720 516h100v20H720z"/><path class="cls-7" d="M752 516h36v20h-36z"/><path class="cls-8" d="M786 644h20v12h-20z"/><path class="cls-8" transform="rotate(180 744 650)" d="M734 644h20v12h-20z"/><path class="cls-41" d="M790.414 652h11.172A10.414 10.414 0 01812 662.414V664h-32v-1.586A10.414 10.414 0 01790.414 652z"/><rect class="cls-41" x="776" y="664" width="40" height="8" rx="4" ry="4"/><path class="cls-41" d="M728 652h32v1.586A10.414 10.414 0 01749.586 664h-11.172A10.414 10.414 0 01728 653.586V652z" transform="rotate(-180 744 658)"/><rect class="cls-41" x="724" y="664" width="40" height="8" rx="4" ry="4" transform="rotate(180 744 668)"/><path class="cls-9" d="M744 536a16 16 0 00-16 16v92h32v-92a16 16 0 00-16-16zm36 16v92h32v-92a16 16 0 00-16-16 16 16 0 00-16 16z"/><rect class="cls-5" x="726" y="640" width="36" height="12" rx="4" ry="4"/><rect class="cls-5" x="778" y="640" width="36" height="12" rx="4" ry="4"/><path class="cls-28" d="M684 484h172v12a32 32 0 01-32 32H716a32 32 0 01-32-32v-12z"/><rect class="cls-29" x="678" y="472" width="184" height="12" rx="6" ry="6"/><path class="cls-31" d="M849 672h-12V560a20 20 0 00-20-20h-94a20 20 0 00-20 20v112h-12V560a32 32 0 0132-32h94a32 32 0 0132 32z"/><path class="cls-31" d="M839 664h8a4 4 0 014 4v4h-16v-4a4 4 0 014-4zm-146 0h8a4 4 0 014 4v4h-16v-4a4 4 0 014-4z"/><path class="cls-32" d="M830 486a32 32 0 01-32 32h-80a32 32 0 01-32-32v10a30.047 30.047 0 0030 30h108a30 30 0 0030-30v-10z"/><path class="cls-30" d="M692 492h24"/><path class="cls-24" d="M866 672H674m208 0h-8"/><path class="cls-3" d="M450.27 148.4l-7.702 2.568a2.53 2.53 0 00-1.6 1.6l-2.567 7.701a2.53 2.53 0 01-4.801 0l-2.567-7.701a2.53 2.53 0 00-1.6-1.6l-7.702-2.567a2.53 2.53 0 010-4.802l7.702-2.567a2.53 2.53 0 001.6-1.6l2.567-7.701a2.53 2.53 0 014.801 0l2.567 7.701a2.53 2.53 0 001.6 1.6l7.702 2.567a2.53 2.53 0 010 4.802zm-215.568 37.4l-5.776 1.925a1.898 1.898 0 00-1.2 1.2l-1.926 5.777a1.898 1.898 0 01-3.6 0l-1.926-5.776a1.898 1.898 0 00-1.2-1.2l-5.776-1.926a1.898 1.898 0 010-3.6l5.776-1.926a1.898 1.898 0 001.2-1.2l1.925-5.776a1.898 1.898 0 013.601 0l1.925 5.776a1.898 1.898 0 001.2 1.2l5.777 1.925a1.898 1.898 0 010 3.601zm176-18l-5.776 1.925a1.898 1.898 0 00-1.2 1.2l-1.926 5.777a1.898 1.898 0 01-3.6 0l-1.926-5.776a1.898 1.898 0 00-1.2-1.2l-5.776-1.926a1.898 1.898 0 010-3.6l5.776-1.926a1.898 1.898 0 001.2-1.2l1.925-5.776a1.898 1.898 0 013.601 0l1.926 5.776a1.898 1.898 0 001.2 1.2l5.776 1.925a1.898 1.898 0 010 3.601zm269 258l-5.776 1.925a1.898 1.898 0 00-1.2 1.2l-1.926 5.777a1.898 1.898 0 01-3.6 0l-1.926-5.776a1.898 1.898 0 00-1.2-1.2l-5.776-1.926a1.898 1.898 0 010-3.6l5.776-1.926a1.898 1.898 0 001.2-1.2l1.925-5.776a1.898 1.898 0 013.601 0l1.926 5.776a1.898 1.898 0 001.2 1.2l5.776 1.925a1.898 1.898 0 010 3.601zM886.27 170.4l-7.702 2.568a2.53 2.53 0 00-1.6 1.6l-2.567 7.702a2.53 2.53 0 01-4.801 0l-2.567-7.702a2.53 2.53 0 00-1.6-1.6l-7.702-2.567a2.53 2.53 0 010-4.801l7.702-2.567a2.53 2.53 0 001.6-1.6l2.567-7.702a2.53 2.53 0 014.801 0l2.567 7.701a2.53 2.53 0 001.6 1.6l7.702 2.568a2.53 2.53 0 010 4.8zM28.702 409.8l-5.776 1.926a1.898 1.898 0 00-1.2 1.2l-1.926 5.777a1.898 1.898 0 01-3.6 0l-1.926-5.776a1.898 1.898 0 00-1.2-1.2L7.298 409.8a1.898 1.898 0 010-3.6l5.776-1.926a1.898 1.898 0 001.2-1.2l1.926-5.777a1.898 1.898 0 013.6 0l1.926 5.776a1.898 1.898 0 001.2 1.2l5.776 1.926a1.898 1.898 0 010 3.6zm692-316l-5.776 1.926a1.898 1.898 0 00-1.2 1.2l-1.926 5.777a1.898 1.898 0 01-3.6 0l-1.926-5.776a1.898 1.898 0 00-1.2-1.2l-5.776-1.926a1.898 1.898 0 010-3.6l5.776-1.926a1.898 1.898 0 001.2-1.2l1.926-5.777a1.898 1.898 0 013.6 0l1.926 5.776a1.898 1.898 0 001.2 1.2l5.776 1.926a1.898 1.898 0 010 3.6z"/><path class="cls-29" d="M821 472h20l2-32h-24l2 32z"/><path d="M840.172 431.172l-2.344-2.344a2.828 2.828 0 00-2-.828h-9.656a2.828 2.828 0 00-2 .828l-2.344 2.344a2.828 2.828 0 01-2 .828h0a2.828 2.828 0 00-2.828 2.828v2.344a2.828 2.828 0 002.828 2.828h22.344a2.828 2.828 0 002.828-2.828v-2.344a2.828 2.828 0 00-2.828-2.828h0a2.828 2.828 0 01-2-.828z" fill="#495057" stroke-miterlimit="10" stroke="#1a1d20" stroke-linecap="round" stroke-width="4"/><path d="M843.734 460.25l.5-8a4 4 0 00-3.992-4.25h-18.484a4 4 0 00-3.992 4.25l.5 8a4 4 0 003.992 3.75h17.484a4 4 0 003.992-3.75z" fill="#bdc4cb" stroke-miterlimit="10" stroke="#1a1d20" stroke-linecap="round" stroke-width="4"/><path class="cls-7" d="M103.274 475.127l-14.48 8.594a1.602 1.602 0 01-.901.223l-3.515-.185 1.006-19.193 3.514.185a1.602 1.602 0 01.874.315z"/><path class="cls-14" d="M50.197 462.723l-1.006 19.192 38.386 2.012-.777-.58a3.203 3.203 0 01.278-5.323l.834-.495-.777-.58a3.203 3.203 0 01.279-5.322l.834-.495-.778-.58a3.203 3.203 0 01.279-5.323l.834-.495z"/><path class="cls-4" d="M29.07 468.03l-.335 6.398a6.406 6.406 0 006.062 6.732l7.997.42 1.006-19.193-7.997-.419a6.406 6.406 0 00-6.733 6.062z"/><path class="cls-16" d="M98.644 471.677l4.63 3.45-4.965 2.947.335-6.397z"/><path class="cls-11" d="M87.113 477.488l-22.605-1.142m-5.049-6.723l-9.597-.503"/><rect class="cls-7" x="34.484" y="468.797" width="24.024" height="6.406" rx="3.203" ry="3.203" transform="rotate(93 46.496 472)"/><rect class="cls-31" x="576.5" y="476" width="52" height="8" rx="4" ry="4"/><path class="cls-11" d="M585 478v4m35-4v4"/></g></svg>