<svg xmlns="http://www.w3.org/2000/svg" viewBox="0 0 144 144"><defs><style>.b,.e,.f{stroke:#343a40;stroke-width:4px}.e{stroke-linecap:round}.b,.e,.f{fill:#fff;stroke-miterlimit:10}.e,.f{fill:none}</style></defs><rect x="2" y="110" width="140" height="8" rx="4" ry="4" stroke-linejoin="round" stroke-linecap="round" stroke="#343a40" stroke-width="4" fill="#fcc41a"/><path class="b" d="M6 26h132v84H6z"/><path d="M136 28h-15c0 25-1.83 80-108 80h123z" fill="#dee2e6"/><path class="b" d="M6 54h132m0 28H6m0-28h24v28H6zm0-28h24v28H6zm0 56h24v28H6z"/><path d="M14 2h116a8 8 0 018 8v16h0H6h0V10a8 8 0 018-8z" fill="#92da0d" stroke-linejoin="round" stroke-linecap="round" stroke="#343a40" stroke-width="4"/><path class="e" d="M22 118v24m20 0v-24"/><path class="f" d="M42 140l-20-20m0 20l20-20"/><path class="e" d="M122 118v24m-20 0v-24"/><path class="f" d="M102 140l20-20m0 20l-20-20"/><rect class="b" x="32" y="10" width="80" height="8" rx="4" ry="4"/><path d="M18 46V34l-3 1m-1.11 30.17a3.44 3.44 0 012-2.51l.69-.3A4.45 4.45 0 0122.05 64a3.44 3.44 0 01-1 4.81L13 73.9h10M14 90h5a3 3 0 013 3 3 3 0 01-3 3 3 3 0 013 3 3 3 0 01-3 3h-5m24-68h24m-24 8h48M38 62h28m-28 8h40M38 90h32m-32 8h52" fill="none" stroke-linejoin="round" stroke-linecap="round" stroke="#343a40" stroke-width="4"/><path class="e" d="M16 142h32m48 0h36m-76 0h8"/></svg>